<?xml version="1.0" encoding="UTF-8" standalone="no"?>
<!DOCTYPE svg PUBLIC "-//W3C//DTD SVG 1.1//EN"
 "http://www.w3.org/Graphics/SVG/1.1/DTD/svg11.dtd">
<!-- Generated by graphviz version 14.1.1 (20251213.1925)
 -->
<!-- Title: G Pages: 1 -->
<svg width="1261pt" height="44pt"
 viewBox="0.00 0.00 1261.00 44.00" xmlns="http://www.w3.org/2000/svg" xmlns:xlink="http://www.w3.org/1999/xlink">
<g id="graph0" class="graph" transform="scale(1 1) rotate(0) translate(4 40)">
<title>G</title>
<polygon fill="white" stroke="none" points="-4,4 -4,-40 1257,-40 1257,4 -4,4"/>
<!-- azurerm_linux_virtual_machine.example -->
<g id="node1" class="node">
<title>azurerm_linux_virtual_machine.example</title>
<polygon fill="none" stroke="black" points="1253,-36 993.25,-36 993.25,0 1253,0 1253,-36"/>
<text xml:space="preserve" text-anchor="middle" x="1123.12" y="-12.2" font-family="sans-serif" font-size="14.00">azurerm_linux_virtual_machine.example</text>
</g>
<!-- azurerm_network_interface.example -->
<g id="node2" class="node">
<title>azurerm_network_interface.example</title>
<polygon fill="none" stroke="black" points="957.25,-36 721.5,-36 721.5,0 957.25,0 957.25,-36"/>
<text xml:space="preserve" text-anchor="middle" x="839.38" y="-12.2" font-family="sans-serif" font-size="14.00">azurerm_network_interface.example</text>
</g>
<!-- azurerm_linux_virtual_machine.example&#45;&gt;azurerm_network_interface.example -->
<g id="edge1" class="edge">
<title>azurerm_linux_virtual_machine.example&#45;&gt;azurerm_network_interface.example</title>
<path fill="none" stroke="black" d="M992.79,-18C984.92,-18 977,-18 969.13,-18"/>
<polygon fill="black" stroke="black" points="969.16,-14.5 959.16,-18 969.16,-21.5 969.16,-14.5"/>
</g>
<!-- azurerm_subnet.example -->
<g id="node4" class="node">
<title>azurerm_subnet.example</title>
<polygon fill="none" stroke="black" points="685.5,-36 515.75,-36 515.75,0 685.5,0 685.5,-36"/>
<text xml:space="preserve" text-anchor="middle" x="600.62" y="-12.2" font-family="sans-serif" font-size="14.00">azurerm_subnet.example</text>
</g>
<!-- azurerm_network_interface.example&#45;&gt;azurerm_subnet.example -->
<g id="edge2" class="edge">
<title>azurerm_network_interface.example&#45;&gt;azurerm_subnet.example</title>
<path fill="none" stroke="black" d="M721.04,-18C713.07,-18 705.1,-18 697.26,-18"/>
<polygon fill="black" stroke="black" points="697.41,-14.5 687.41,-18 697.41,-21.5 697.41,-14.5"/>
</g>
<!-- azurerm_resource_group.example -->
<g id="node3" class="node">
<title>azurerm_resource_group.example</title>
<polygon fill="none" stroke="black" points="223.75,-36 0,-36 0,0 223.75,0 223.75,-36"/>
<text xml:space="preserve" text-anchor="middle" x="111.88" y="-12.2" font-family="sans-serif" font-size="14.00">azurerm_resource_group.example</text>
</g>
<!-- azurerm_virtual_network.example -->
<g id="node5" class="node">
<title>azurerm_virtual_network.example</title>
<polygon fill="none" stroke="black" points="479.75,-36 259.75,-36 259.75,0 479.75,0 479.75,-36"/>
<text xml:space="preserve" text-anchor="middle" x="369.75" y="-12.2" font-family="sans-serif" font-size="14.00">azurerm_virtual_network.example</text>
</g>
<!-- azurerm_subnet.example&#45;&gt;azurerm_virtual_network.example -->
<g id="edge3" class="edge">
<title>azurerm_subnet.example&#45;&gt;azurerm_virtual_network.example</title>
<path fill="none" stroke="black" d="M515.38,-18C507.58,-18 499.58,-18 491.54,-18"/>
<polygon fill="black" stroke="black" points="491.67,-14.5 481.67,-18 491.67,-21.5 491.67,-14.5"/>
</g>
<!-- azurerm_virtual_network.example&#45;&gt;azurerm_resource_group.example -->
<g id="edge4" class="edge">
<title>azurerm_virtual_network.example&#45;&gt;azurerm_resource_group.example</title>
<path fill="none" stroke="black" d="M259.49,-18C251.55,-18 243.52,-18 235.51,-18"/>
<polygon fill="black" stroke="black" points="235.73,-14.5 225.73,-18 235.73,-21.5 235.73,-14.5"/>
</g>
</g>
</svg>
